<svg width="59" height="57" viewBox="0 0 59 57" fill="none" xmlns="http://www.w3.org/2000/svg">
<path d="M58.9155 21.6886C58.7126 21.0639 58.1728 20.6086 57.523 20.5143L39.2667 17.8614L31.1021 1.31849C30.8115 0.72959 30.2117 0.356812 29.5551 0.356812C28.8983 0.356812 28.2986 0.72959 28.0079 1.31849L19.8429 17.8614L1.58704 20.5143C0.937299 20.6086 0.397282 21.0639 0.194387 21.6884C-0.00862198 22.3131 0.160687 22.9987 0.631001 23.4571L13.8408 36.334L10.7228 54.5166C10.6117 55.1639 10.8779 55.818 11.4091 56.2041C11.7097 56.4224 12.0657 56.5335 12.4234 56.5335C12.698 56.5335 12.9736 56.468 13.226 56.3353L29.555 47.7505L45.8832 56.3352C46.4647 56.6408 47.1689 56.59 47.7002 56.204C48.2315 55.818 48.4977 55.1637 48.3868 54.5164L45.2678 36.334L58.479 23.457C58.9492 22.9987 59.1187 22.3131 58.9155 21.6886Z" fill="#F2F2F2"/>
</svg>
