<svg width="159" height="60" viewBox="0 0 159 60" fill="none" xmlns="http://www.w3.org/2000/svg">
<g clip-path="url(#clip0)">
<path d="M0 58.7893C0 58.7893 91.213 34.4154 158.79 51.5866L159 50.7929C159 50.7929 100.033 31.8515 1.13205 54.9262L0 58.7893Z" fill="#DE2355"/>
<path d="M43.7218 10.9325V14.9722C44.0563 14.1632 44.4861 13.0668 45.6322 12.0289C46.8728 10.8749 48.6864 10.2397 50.4536 10.2397C51.3604 10.2397 52.2672 10.4136 53.174 10.7587C55.9904 11.9145 56.802 14.337 57.1357 15.3749C59.3319 10.9325 62.8167 10.2992 64.6783 10.2992C66.9689 10.2992 68.9738 11.2226 70.3112 12.665C72.6962 15.2037 72.7923 17.9713 72.7923 24.8947V40.8208H65.7755V26.6839C65.7755 21.8947 65.6803 20.9145 64.9648 19.646C64.2005 18.2614 63.1032 17.9713 62.0523 17.9713C60.1435 17.9713 59.1886 19.4722 59.0454 19.7028C58.2818 21.1451 58.2818 23.6262 58.2818 26.0487V40.8208H51.2651V25.7614C51.2651 22.5298 51.2651 21.0884 50.5496 19.7614C50.0246 18.7812 48.9745 17.9722 47.6852 17.9722C47.0641 17.9722 46.4438 18.146 45.8707 18.4929C43.8186 19.7614 43.7706 21.9542 43.7706 27.6082V40.8217H36.7539V10.9325H43.7218Z" fill="#093058"/>
<path d="M100.694 10.9325H107.855L100.694 40.8208H94.1537L90.0007 20.6262L85.8956 40.8208H79.2615L72.1016 10.9325H79.2615L83.032 29.6271L86.8977 10.9325H93.1028L96.923 29.6271L100.694 10.9325Z" fill="#093058"/>
<path d="M122.59 25.5297C122.59 28.2423 122.256 30.8378 120.777 32.8C119.536 34.3567 118.151 34.4729 117.721 34.4729C116.338 34.4729 114.762 33.5495 113.808 30.9522C113.236 29.4531 113.045 27.6639 113.045 25.818C113.045 23.5099 113.331 21.145 114.524 19.2414C115.383 17.9144 116.719 17.0495 118.009 17.0495C119.057 17.0495 120.108 17.6261 120.825 18.5486C121.731 19.6459 122.59 21.6657 122.59 25.5297ZM122.953 40.8207H129.826V10.8748H123.096V14.7414C121.856 11.8558 119.707 10.1829 116.987 10.1829C112.309 10.1829 106.198 14.5684 106.198 26.3387C106.198 35.6846 110.59 41.4558 116.461 41.4558C120.471 41.4558 122.093 38.9171 122.952 37.5324V40.8207H122.953Z" fill="#093058"/>
<path d="M146.03 10.9325H153.162L145.314 40.5901C144.74 42.6676 143.835 46.0721 142.45 47.7451C141.161 49.2442 139.633 49.937 133.953 49.937C133.141 49.937 132.808 49.8793 132.092 49.8226V43.1865H133.953C134.622 43.1865 136.197 43.1865 136.913 42.437C137.484 41.9181 137.963 40.6478 137.963 39.4361C137.963 38.801 137.676 37.6469 137.438 36.8965L129.8 10.9325H137.438L141.925 31.0685L146.03 10.9325Z" fill="#093058"/>
<path d="M21.0824 8.95725L24.8479 24.687H17.5124L21.0824 8.95725ZM16.6321 -0.00671387L4.84619 40.8203H13.5018L15.7021 32.1456H26.7551L29.0051 40.8203H37.7103L25.4342 -0.00671387H16.6321Z" fill="#093058"/>
</g>
<defs>
<clipPath id="clip0">
<rect width="159" height="60" fill="white"/>
</clipPath>
</defs>
</svg>
