<svg width="13" height="12" viewBox="0 0 13 12" fill="none" xmlns="http://www.w3.org/2000/svg">
<path d="M12.6886 4.62312C12.6472 4.49583 12.5372 4.40306 12.4048 4.38384L8.68477 3.84326L7.02106 0.472327C6.96186 0.352328 6.83964 0.276367 6.70583 0.276367C6.572 0.276367 6.4498 0.352328 6.39057 0.472327L4.7268 3.84326L1.00681 4.38384C0.874416 4.40306 0.764378 4.49583 0.723034 4.62309C0.681667 4.75038 0.716167 4.89009 0.812002 4.98349L3.50374 7.6074L2.8684 11.3125C2.84576 11.4444 2.89999 11.5776 3.00825 11.6563C3.06949 11.7008 3.14203 11.7234 3.21492 11.7234C3.27089 11.7234 3.32705 11.7101 3.37847 11.683L6.70581 9.93373L10.033 11.683C10.1515 11.7453 10.295 11.7349 10.4032 11.6563C10.5115 11.5776 10.5658 11.4443 10.5431 11.3124L9.90759 7.6074L12.5996 4.98347C12.6954 4.89009 12.73 4.75038 12.6886 4.62312Z" fill="#FFAD93"/>
</svg>
