<svg width="13" height="12" viewBox="0 0 13 12" fill="none" xmlns="http://www.w3.org/2000/svg">
<path d="M12.4493 4.34675C12.408 4.21946 12.298 4.12669 12.1656 4.10748L8.44551 3.56689L6.78181 0.19596C6.7226 0.0759606 6.60038 0 6.46657 0C6.33275 0 6.21054 0.0759606 6.15132 0.19596L4.48754 3.56689L0.767556 4.10748C0.635158 4.12669 0.52512 4.21946 0.483776 4.34672C0.442409 4.47401 0.476909 4.61372 0.572745 4.70712L3.26448 7.33103L2.62914 11.0361C2.6065 11.168 2.66074 11.3013 2.76899 11.3799C2.83024 11.4244 2.90277 11.4471 2.97567 11.4471C3.03163 11.4471 3.08779 11.4337 3.13921 11.4067L6.46655 9.65736L9.79375 11.4067C9.91222 11.4689 10.0557 11.4586 10.164 11.3799C10.2722 11.3013 10.3265 11.1679 10.3039 11.036L9.66833 7.33103L12.3604 4.7071C12.4562 4.61372 12.4907 4.47401 12.4493 4.34675Z" fill="#FFF593"/>
</svg>
